<svg xmlns="http://www.w3.org/2000/svg" xmlns:xlink="http://www.w3.org/1999/xlink" preserveAspectRatio="xMidYMid meet" version="1.0" viewBox="-0.1 -0.9 425.1 413.4" zoomAndPan="magnify" style="fill: rgb(0, 0, 0);" original_string_length="40692"><g id="__id262_sxfrey2a0a"><path d="M280.9,149.38c0.01,0.18,0.01,0.35,0,0.53c-0.03,5.7-0.15,11.57-0.32,17.46c-0.1,3.34-0.22,6.69-0.35,10.03 c-0.27,7.16-0.61,14.25-0.98,21.04c-0.43,7.89-0.89,15.39-1.36,22.09c-0.48,7.1-0.96,13.33-1.34,18.22 c-0.62,7.76-4.82,14.76-11.37,18.99c-19.06,12.32-48.2,26.64-62.66,33.52c-5.77,2.75-12.38,3.21-18.46,1.2 c-24.34-8.06-56.07-23.5-73.72-32.48c-8.26-4.19-13.52-12.62-13.62-21.88c-0.05-4.92-0.07-9.82-0.06-14.69 c0.03-8.66,0.15-17.17,0.33-25.28c0.06-2.79,0.12-5.54,0.2-8.21c0.13-4.82,0.28-9.43,0.44-13.79c0.05-1.24,0.09-2.46,0.13-3.66 c0.07-1.65,0.13-3.25,0.19-4.81c0.18-4.45,0.37-8.53,0.55-12.15c0.1-2.1,0.2-4.04,0.29-5.81c0.03-0.39,0.04-0.76,0.06-1.14 c0.4-7.38,4.04-14.22,9.97-18.64c19.59-14.61,51.51-30.07,67.3-37.34c6.05-2.78,12.97-3.06,19.21-0.7 c33.55,12.71,59.63,27.43,73.76,36.16c6.7,4.15,11.01,11.17,11.71,18.92C280.87,147.76,280.91,148.57,280.9,149.38z" style="fill: rgb(221, 123, 74);"/></g><g id="__id263_sxfrey2a0a"><path d="M282.19,169.16c-0.02,2.19-0.03,4.57-0.05,7.13c-0.04,2.56-0.19,5.3-0.31,8.22l-0.42,9.07 c-0.13,3.02-0.28,6.05-0.49,9.07l-1.13,18.13l-1.35,18.12c-0.51,6.5-3.5,12.75-8.22,17.23c-1.18,1.11-2.45,2.15-3.81,3.03 l-3.88,2.45l-3.91,2.37l-3.94,2.31c-5.27,3.04-10.59,5.96-15.96,8.8c-10.73,5.68-21.59,11.08-32.53,16.31 c-1.4,0.65-2.67,1.3-4.2,1.95c-1.49,0.62-3.04,1.1-4.62,1.43c-3.16,0.67-6.44,0.76-9.63,0.25c-1.58-0.25-3.19-0.67-4.66-1.18 l-4.32-1.5c-2.86-1.04-5.71-2.11-8.54-3.22c-11.32-4.46-22.41-9.4-33.38-14.58c-5.49-2.59-10.94-5.24-16.37-7.94l-8.12-4.09 c-1.35-0.69-2.68-1.35-4.1-2.16c-1.35-0.84-2.68-1.75-3.86-2.82c-2.42-2.08-4.38-4.66-5.9-7.45c-1.45-2.83-2.47-5.9-2.81-9.07 c-0.22-1.58-0.19-3.19-0.2-4.67l0-4.55l0.02-9.09c0.27-24.24,1.11-48.46,2.42-72.65c0.07-1.48,0.18-3.08,0.46-4.61 c0.26-1.54,0.7-3.05,1.25-4.51c1.09-2.93,2.74-5.64,4.8-7.98c1.02-1.18,2.18-2.24,3.4-3.2c1.23-0.95,2.47-1.79,3.71-2.68 c2.5-1.73,5.02-3.42,7.59-5.03c10.26-6.48,20.92-12.27,31.71-17.75c5.4-2.74,10.84-5.4,16.31-7.98c2.73-1.3,5.48-2.57,8.23-3.82 c2.76-1.31,5.76-2.18,8.82-2.44c3.06-0.27,6.16,0.01,9.11,0.84c1.49,0.4,2.89,1.01,4.29,1.55l4.22,1.66 c5.61,2.27,11.18,4.63,16.69,7.11c11.02,4.97,21.85,10.36,32.43,16.2c5.29,2.92,10.52,5.94,15.67,9.09c1.28,0.8,2.58,1.56,3.82,2.43 c1.23,0.88,2.37,1.88,3.42,2.96c2.09,2.17,3.81,4.72,4.98,7.5c1.35,3.16,1.67,5.77,1.73,7.46c-0.01,1.71-0.12,2.55-0.25,2.55 c-0.14,0-0.3-0.84-0.5-2.48c-0.27-1.62-0.72-4.08-2.02-7.09c-1.13-2.64-2.78-5.05-4.78-7.11c-1.01-1.02-2.1-1.97-3.27-2.79 c-1.16-0.8-2.48-1.57-3.76-2.36c-5.15-3.1-10.37-6.08-15.66-8.96c-10.57-5.76-21.39-11.06-32.39-15.95 c-5.51-2.44-11.07-4.75-16.67-6.98l-4.22-1.63l-2.11-0.81c-0.68-0.25-1.35-0.48-2.04-0.67c-2.75-0.76-5.63-1.02-8.47-0.76 c-2.86,0.26-5.6,1.06-8.22,2.31c-2.73,1.27-5.47,2.56-8.18,3.87c-5.44,2.61-10.85,5.3-16.21,8.06 c-10.72,5.53-21.31,11.37-31.44,17.86c-2.54,1.62-5.02,3.3-7.48,5.03c-1.19,0.88-2.47,1.76-3.6,2.64c-1.11,0.88-2.15,1.85-3.08,2.92 c-1.86,2.13-3.34,4.6-4.32,7.26c-0.49,1.33-0.88,2.7-1.11,4.09c-0.25,1.41-0.33,2.75-0.4,4.33c-1.15,24.16-1.85,48.38-1.98,72.59 l0.03,9.08l0.02,4.54c0.01,0.74-0.02,1.55,0.03,2.23l0.05,1.05l0.12,1.05c0.32,2.8,1.25,5.5,2.55,7.99 c1.36,2.46,3.11,4.71,5.26,6.53c1.05,0.94,2.22,1.72,3.42,2.45c1.18,0.68,2.59,1.36,3.93,2.04l8.12,4.04 c5.43,2.67,10.88,5.28,16.36,7.83c10.96,5.1,22.02,9.98,33.26,14.34c2.81,1.09,5.63,2.13,8.46,3.15l4.26,1.46 c1.37,0.46,2.7,0.79,4.09,1c2.76,0.41,5.6,0.31,8.33-0.3c1.37-0.3,2.7-0.73,3.99-1.27l0.96-0.43l1.02-0.49l2.04-0.98 c10.89-5.24,21.69-10.66,32.34-16.33c5.32-2.84,10.6-5.75,15.81-8.77c2.6-1.51,5.18-3.06,7.73-4.63c1.25-0.8,2.56-1.6,3.77-2.4 c1.17-0.76,2.25-1.66,3.26-2.62c4.03-3.87,6.57-9.23,6.97-14.81l1.34-18.05c0.37-6.02,0.75-12.04,1.12-18.05 c0.2-3.01,0.35-6.02,0.49-9.03l0.43-9.03c0.14-2.92,0.28-5.65,0.4-8.2c0.11-2.55,0.21-4.92,0.3-7.11c0.21-4.37,0.45-8.02,0.7-10.93 c0.5-5.83,1.06-8.73,1.52-8.72c0.49,0.01,0.88,2.95,1.1,8.81C282.14,161.11,282.2,164.77,282.19,169.16z" style="fill: rgb(86, 9, 31);"/></g><g id="__id264_sxfrey2a0a"><path d="M423.08,254.74c0,7.11-0.05,13.35-0.11,18.26c-0.09,7.78-3.8,15.06-10.05,19.71 c-18.18,13.58-46.29,29.84-60.24,37.69c-5.57,3.13-12.13,4.04-18.34,2.45c-24.83-6.39-57.53-19.64-75.75-27.4 c-8.52-3.62-14.35-11.67-15.08-20.91c-0.38-4.9-0.73-9.79-1.05-14.65c-0.56-8.64-1.02-17.15-1.39-25.25 c-0.36-7.8-0.64-15.2-0.85-21.99c-0.26-7.82-0.42-14.82-0.53-20.63c-0.04-2.1-0.08-4.05-0.1-5.82c0-0.39-0.01-0.77-0.02-1.14 c-0.1-7.39,3.06-14.46,8.69-19.28c18.55-15.9,49.35-33.49,64.62-41.81c5.84-3.18,12.73-3.93,19.11-2 c34.34,10.4,61.35,23.32,76.04,31.08c6.97,3.68,11.75,10.4,12.97,18.08c0.13,0.79,0.22,1.59,0.27,2.41 c0.01,0.18,0.03,0.35,0.03,0.53c0.56,8.92,0.94,18.25,1.19,27.47c0.22,7.15,0.36,14.26,0.45,21.06 C423.05,240.51,423.1,248.02,423.08,254.74z" style="fill: rgb(242, 214, 195);"/></g><g id="__id265_sxfrey2a0a"><path d="M168.9,244.68c-0.01,0.18-0.01,0.35-0.03,0.53c-0.08,1.82-0.17,3.66-0.27,5.52 c-0.22,4.3-0.49,8.67-0.79,13.05c-0.21,2.96-0.43,5.92-0.66,8.87c-0.21,2.67-0.42,5.33-0.64,7.97c-0.18,2.12-0.36,4.21-0.54,6.29 c-0.2,2.27-0.4,4.52-0.61,6.73c-0.32,3.48-0.65,6.89-0.98,10.18c-0.41,4.15-0.83,8.12-1.23,11.84c-0.49,4.62-0.97,8.86-1.39,12.61 c-0.23,2-0.45,3.85-0.65,5.54c-0.75,6.28-3.83,11.97-8.56,16.02h-0.01c-1.09,0.94-2.26,1.78-3.52,2.52 c-6.09,3.61-13.17,7.38-20.47,11.04c-5.31,2.66-10.73,5.27-15.98,7.73c-0.46,0.22-0.92,0.44-1.38,0.65 c-2.18,1.01-4.7,0.98-6.84-0.11l-1.34-0.67l-94-47.43l-6.14-3.1c-1.88-0.95-3.01-2.94-2.86-5.05l5.91-83.12 c0.26-3.76,1.12-7.41,2.47-10.82c1.24-3.17,2.92-6.14,5-8.83c0.42-0.56,0.87-1.11,1.33-1.64c0.76-0.87,1.57-1.71,2.41-2.52 c2.5-2.37,5.37-4.41,8.53-6.01c1.65-0.84,3.31-1.67,4.96-2.48c4.43-2.19,8.84-4.27,13.06-6.2c1.6-0.74,3.18-1.45,4.72-2.15 c0.9-0.4,1.79-0.79,2.66-1.18c5.88-2.61,11.15-4.84,15.32-6.57c6.14-2.54,13.08-2.56,19.22,0.04c0.29,0.12,0.58,0.25,0.87,0.37 c7.17,3.06,13.98,6.19,20.39,9.32c0.77,0.38,1.54,0.75,2.3,1.12c4.26,2.11,8.33,4.22,12.2,6.29c0.85,0.45,1.68,0.9,2.5,1.35 c10.94,5.92,20.2,11.52,27.44,16.18c1.64,1.06,3.19,2.07,4.62,3.01c0.69,0.46,1.35,0.9,1.99,1.33c1.47,0.98,2.81,2.11,4,3.36 c0.37,0.38,0.72,0.77,1.06,1.17c0.07,0.07,0.13,0.15,0.19,0.22c1.3,1.54,2.38,3.23,3.26,5.02c1.44,2.97,2.29,6.22,2.46,9.59 C168.93,243.05,168.94,243.86,168.9,244.68z" style="fill: rgb(86, 9, 31);"/></g><g id="__id266_sxfrey2a0a"><path d="M105.16,283.48l-0.12,4.71l-0.16,6.65l-0.04,1.66l-0.42,17.2l-0.19,7.6l-0.15,6.23l-0.06,2.51l-0.4,16.16 l-0.61,24.79l-94-47.43l1.21-19.66l0.96-15.65l0.09-1.38l0.17-2.76l0.75-12.3l1.03-16.66l0.02-0.38l0.26-4.26l0.86-13.93 c0.2-3.24,3.62-5.26,6.56-3.86l74.92,35.61C101.67,271.1,105.32,277.03,105.16,283.48z M324.61,175.16 c21.59-2.72,43.07-6.04,64.61-8.98c2.56-0.35,2.33-4.21-0.3-4.04c-21.97,1.46-43.79,2.54-65.68,5.17 c-10.74,1.29-21.47,2.71-32.17,4.33c-4.89,0.74-9.78,1.53-14.66,2.34c-5.28,0.87-9.53,1.42-13.58,5c-0.73,0.64-0.42,2.06,0.43,2.43 c4.34,1.88,7.87,1.44,12.5,0.71c5.52-0.87,11.04-1.76,16.57-2.58C303.08,177.97,313.84,176.52,324.61,175.16z M311.64,152.71 c5.2-0.71,10.39-1.47,15.59-2.1c4.76-0.58,9.03-1.85,13.66-2.74c5.12-0.98,10.34-1.44,15.52-1.9c1.48-0.13,1.37-2.29-0.11-2.29 c-10.1-0.04-20.28-1.13-30.29-0.15c-4.91,0.48-9.81,1.01-14.69,1.73c-3.94,0.58-8.68,0.48-10.73,4.39 c-0.35,0.66-0.19,1.47,0.34,1.98C303.88,154.48,307.94,153.22,311.64,152.71z M403.99,245.93c-0.69-11.91-1.83-23.97-4.07-35.7 c-2.09-10.91-11.01-19.37-22.26-20.08c-7.69-0.49-15.76,0.67-23.43,1.26c-8.18,0.62-16.35,1.5-24.51,2.44 c-9.01,1.04-18.1,2.19-27,3.95c-4.33,0.86-8.67,2.42-13.04,2.96c-4.42,0.55-8.48,1.06-12.85,2.09c-1.36,0.32-0.85,2.51,0.5,2.39 c5.5-0.51,11.09-1.9,16.55-2.2c4.58-0.26,9.14-0.37,13.71-0.81c9.45-0.91,18.92-1.69,28.39-2.43c9.15-0.71,18.31-1.29,27.47-1.8 c7.76-0.43,16.36-2.13,22.93,3.09c5.45,4.33,6.3,10.79,7.23,17.24c0.99,6.8,1.76,13.62,2.32,20.47c0.66,8.08,1.02,16.18,1.04,24.28 c0.01,4.37-0.21,8.73-0.28,13.1c-0.04,2.55,0.05,5.1,0.07,7.65c0.02,2.54,0.63,5.22,0.6,7.71c-0.03,2.17,3.36,2.43,3.78,0.33 c0.76-3.8,2.05-7.33,2.57-11.26c0.51-3.79,0.66-7.57,0.74-11.38C404.61,261.45,404.44,253.68,403.99,245.93z M379.36,263.39 c-0.37-5.79-0.67-11.62-1.24-17.39c-1.14-11.64-9.41-21.68-21.25-23.61c-9.15-1.49-19.64,0.99-28.75,2.14 c-11.44,1.45-22.8,3.34-34.09,5.66c-1.77,0.36-1.68,3.07,0.23,2.89c17.93-1.73,35.88-3.39,53.86-4.4c12-0.67,22.07,5.39,23.05,18.18 c1.11,14.62,1.8,29.28,2.77,43.91c0.26,3.94,0.24,8.09,1.31,11.92c0.37,1.32,1.79,4.04,1.82,4.61c0.12,1.93,3.13,1.81,3.01-0.12 c0.03,0.51,0.06-0.85,0.13-1.09c0,0.01,0.65-1.66,0.86-2.56c0.82-3.53,0.36-7.28,0.13-10.85 C380.59,282.92,379.98,273.15,379.36,263.39z M320.87,250.6c-1.18,0.28-1.06,1.94,0.2,1.9c16.35-0.44,15.04,20.57,14.94,31.54 c-0.06,6.57-0.05,13.14-0.23,19.7c-0.17,6.16-1.04,12.28,2.28,17.74c0.19,0.31,0.68,0.32,0.91,0.05c5-6.07,4.08-14.91,4.23-22.37 c0.17-8.61,0.14-17.3-0.88-25.86C341.05,262.49,334.28,247.44,320.87,250.6z" style="fill: rgb(221, 123, 74);"/></g><g id="__id267_sxfrey2a0a"><path d="M104.89,294.84l-0.46,18.86c-4.57-1.85-8.71-4.83-13.05-7.27c-3.69-2.07-7.57-3.77-11.45-5.45 c-9.34-4.04-18.7-8.02-28.06-11.99c-13.27-5.61-26.56-11.2-39.67-17.18l1.05-17.04c6.2,3.17,13.05,5.08,19.44,7.91 c4.33,1.92,8.46,4.27,12.67,6.44C64.56,279.02,85.62,285.26,104.89,294.84z M30.33,294.6c-6.26-2.78-12.96-4.67-19.05-7.73 l-1.05,17.03c12.98,5.92,26.15,11.45,39.28,17.01c9.37,3.96,18.73,7.94,28.06,11.99c3.88,1.68,7.77,3.37,11.45,5.44 c4.83,2.71,9.41,6.1,14.61,7.86l0.46-18.67c-19.69-10.02-41.36-16.33-61.08-26.49C38.79,298.87,34.67,296.52,30.33,294.6z" style="fill: rgb(109, 54, 29);"/></g><g id="__id268_sxfrey2a0a"><path d="M424.92,254.86l-0.12,18.17c-0.07,6.5-2.62,12.92-7.02,17.7c-1.1,1.19-2.29,2.3-3.59,3.27l-3.7,2.71 l-3.74,2.63l-3.77,2.57c-5.05,3.39-10.16,6.66-15.32,9.86c-10.32,6.4-20.78,12.52-31.35,18.47c-1.35,0.74-2.58,1.48-4.06,2.23 c-1.44,0.72-2.95,1.3-4.5,1.74c-3.1,0.88-6.36,1.19-9.57,0.9c-1.59-0.14-3.22-0.45-4.72-0.86l-4.41-1.2 c-2.92-0.85-5.84-1.71-8.74-2.63c-11.59-3.68-22.99-7.86-34.29-12.28c-5.65-2.21-11.27-4.48-16.87-6.81l-8.38-3.53 c-1.4-0.6-2.77-1.16-4.23-1.88c-1.4-0.75-2.78-1.56-4.03-2.55c-2.55-1.91-4.68-4.34-6.38-7.02c-1.64-2.72-2.86-5.71-3.42-8.84 c-0.33-1.56-0.41-3.16-0.51-4.64l-0.31-4.54l-0.6-9.07c-1.38-24.2-2.18-48.42-2.52-72.65c-0.03-1.48-0.03-3.08,0.14-4.63 c0.16-1.55,0.49-3.09,0.94-4.58c0.88-2.99,2.34-5.81,4.24-8.28c0.94-1.24,2.02-2.38,3.17-3.42c1.16-1.03,2.34-1.95,3.51-2.93 c2.37-1.9,4.78-3.75,7.23-5.54c9.8-7.16,20.04-13.66,30.43-19.86c5.2-3.1,10.44-6.12,15.73-9.07c2.64-1.48,5.29-2.93,7.95-4.38 c2.66-1.49,5.6-2.57,8.63-3.03c3.03-0.48,6.14-0.41,9.14,0.22c1.51,0.3,2.95,0.81,4.39,1.25l4.33,1.37 c5.75,1.89,11.46,3.86,17.13,5.96c11.33,4.21,22.51,8.85,33.45,13.96c5.47,2.55,10.9,5.21,16.25,8c1.33,0.71,2.68,1.38,3.98,2.16 c1.29,0.79,2.49,1.71,3.62,2.72c2.23,2.03,4.12,4.45,5.48,7.14c1.56,3.07,2.06,5.64,2.24,7.33c0.11,1.71,0.06,2.56-0.06,2.57 c-0.13,0.01-0.34-0.82-0.65-2.44c-0.38-1.61-0.98-4.03-2.49-6.95c-1.31-2.56-3.12-4.86-5.26-6.79c-1.08-0.95-2.23-1.82-3.46-2.57 c-1.21-0.73-2.58-1.4-3.91-2.1c-5.35-2.75-10.76-5.37-16.23-7.88c-10.93-5.03-22.09-9.59-33.4-13.72 c-5.66-2.06-11.37-3.99-17.1-5.83l-4.32-1.34l-2.16-0.67c-0.7-0.2-1.38-0.39-2.08-0.53c-2.8-0.58-5.7-0.64-8.53-0.18 c-2.84,0.46-5.53,1.44-8.06,2.87c-2.64,1.46-5.28,2.92-7.91,4.41c-5.25,2.98-10.47,6.02-15.63,9.14 c-10.33,6.25-20.49,12.79-30.17,19.95c-2.42,1.79-4.79,3.63-7.12,5.52c-1.13,0.96-2.35,1.92-3.41,2.88 c-1.05,0.95-2.03,1.99-2.88,3.13c-1.72,2.26-3.03,4.83-3.83,7.56c-0.4,1.36-0.7,2.76-0.83,4.17c-0.15,1.43-0.15,2.78-0.1,4.35 c0.48,24.19,1.43,48.4,2.94,72.56l0.65,9.05l0.33,4.53c0.06,0.74,0.09,1.55,0.18,2.22l0.12,1.05l0.19,1.04 c0.51,2.78,1.63,5.42,3.1,7.82c1.53,2.37,3.43,4.51,5.71,6.18c1.11,0.87,2.34,1.57,3.59,2.22c1.23,0.6,2.68,1.18,4.06,1.77 l8.38,3.48c5.6,2.29,11.22,4.53,16.86,6.71c11.28,4.35,22.65,8.46,34.16,12.06c2.88,0.9,5.77,1.74,8.66,2.57l4.35,1.17 c1.4,0.37,2.75,0.61,4.16,0.72c2.79,0.23,5.63-0.07,8.32-0.86c1.35-0.4,2.66-0.91,3.91-1.55l0.93-0.49l0.99-0.56l1.97-1.12 c10.51-5.97,20.92-12.1,31.16-18.49c5.12-3.2,10.19-6.45,15.18-9.82c2.49-1.69,4.96-3.4,7.4-5.15c1.2-0.88,2.45-1.77,3.6-2.65 c1.12-0.84,2.14-1.81,3.08-2.84c3.77-4.15,5.95-9.68,5.97-15.3l0.11-18.1c-0.03-6.03-0.07-12.06-0.1-18.09 c0-3.01-0.05-6.03-0.13-9.04l-0.19-9.04c-0.05-2.92-0.11-5.65-0.15-8.21c-0.07-2.55-0.13-4.93-0.19-7.11 c-0.09-4.38-0.1-8.03-0.06-10.95c0.09-5.85,0.43-8.78,0.87-8.8c0.47-0.02,1.04,2.88,1.64,8.71c0.3,2.91,0.6,6.56,0.89,10.94 c0.13,2.19,0.27,4.56,0.43,7.12c0.13,2.56,0.17,5.3,0.24,8.22l0.19,9.08c0.07,3.03,0.13,6.05,0.13,9.08L424.92,254.86z M97.93,367.7 c-28.12-16.32-57.77-30.32-87.33-43.71c-2.12-0.93-2.09-0.99-0.04,0.07c14.5,7.31,28.76,15.19,43.14,22.86 c14.37,7.68,28.9,15.05,43.87,21.5c1.8,0.75,3.15,1.31,4.09,1.7c0.91,0.38,1.35,0.59,1.35,0.59s-0.44-0.23-1.28-0.73 C100.86,369.46,99.6,368.71,97.93,367.7z" style="fill: rgb(86, 9, 31);"/></g><g id="__id269_sxfrey2a0a"><path d="M136.46,142.61c-4.62-10.01-3.8-22.34,2.1-31.66c5.9-9.32,16.69-15.33,27.72-15.44l39.79-4.69 c10.25,2.22,20.37,5.97,28.56,12.52c8.19,6.55,14.29,16.17,15.02,26.63c0.72,10.46-4.65,21.52-14.11,26.05 c-7.27,3.48-15.83,2.92-23.47,5.5c-7.38,2.5-13.73,7.88-21.43,9.12c-7.36,1.19-14.84-1.66-21.09-5.72 c-5.47-3.55-10.44-8.11-16.62-10.16c-2.56-0.85-5.28-1.25-7.71-2.4C141.18,150.46,138.33,146.66,136.46,142.61z M321.69,264.66 c-0.01-0.81-0.07-1.62-0.16-2.41c-0.86-7.74-5.32-14.67-12.11-18.67c-14.31-8.43-40.7-22.59-74.52-34.57 c-6.28-2.22-13.2-1.8-19.19,1.11c-15.63,7.61-47.21,23.75-66.48,38.78c-5.84,4.55-9.33,11.46-9.57,18.85 c-0.01,0.37-0.02,0.75-0.03,1.14c-0.21,6.67-0.45,15.8-0.6,26.45c-0.1,6.79-0.17,14.2-0.17,22c0,8.11,0.06,16.63,0.22,25.29 c0.09,4.87,0.21,9.77,0.37,14.68c0.3,9.26,5.74,17.57,14.09,21.59c17.84,8.59,49.89,23.35,74.4,30.88 c6.12,1.88,12.72,1.28,18.43-1.59c14.3-7.19,43.13-22.13,61.93-34.86c6.45-4.36,10.5-11.46,10.95-19.23 c0.28-4.9,0.62-11.13,0.95-18.24c0.32-6.71,0.63-14.21,0.89-22.11c0.22-6.8,0.41-13.9,0.53-21.06 C321.79,283.28,321.83,273.76,321.69,264.66z M102.22,320.45c0.66,0.29,1.33,0.57,2.01,0.85l-0.15,6.23l-0.06,2.51 c-1.83-0.84-3.62-1.85-5.4-2.64c-4.42-1.97-8.87-3.87-13.33-5.74c-8.94-3.73-17.95-7.29-26.93-10.93 c-9.18-3.72-18.52-7.27-27.48-11.5c-6.89-3.26-13.64-6.47-19.7-10.98l0.09-1.38l0.17-2.76c8.27,1.96,16.07,5.36,23.91,8.63 c8.86,3.69,17.7,7.41,26.6,10.99c9.29,3.73,18.59,7.45,27.81,11.33C93.93,316.82,98.09,318.6,102.22,320.45z M102.48,287.18 c-4.24-1.85-8.48-3.7-12.71-5.54c-9.05-3.94-18.09-7.88-27.15-11.79c-9.02-3.9-18.04-7.79-27.06-11.68 c-6.76-2.92-14.49-7.13-22.06-7.66l-0.26,4.26l-0.02,0.38c5.85,4.82,14.11,7.49,20.8,10.41c9.05,3.96,18.09,7.91,27.14,11.87 c9.06,3.96,18.13,7.87,27.2,11.81c4.22,1.82,8.43,3.65,12.65,5.48c1.31,0.57,2.57,1.22,3.83,1.78l0.04-1.66l0.16-6.65 C104.15,287.85,103.29,287.53,102.48,287.18z" style="fill: rgb(250, 239, 214);"/></g><g id="__id270_sxfrey2a0a"><path d="M321.62,292.69c-19.34,10.44-38.69,20.88-58.03,31.32c-10.64,5.74-22.14,11.66-34.16,10.31 c-12.22-1.38-22.25-9.98-33.59-14.76c-5.71-2.41-11.78-3.85-17.62-5.94c-5.62-2.02-11.02-4.63-16.4-7.24 c-7.59-3.68-15.19-7.36-22.79-11.04c0.15-10.65,0.39-19.78,0.6-26.45c25.49,12.98,51.8,24.34,78.73,33.98 c4.46,1.6,9.01,3.16,13.74,3.39c12.66,0.6,23.5-8.19,34.61-14.29c12.3-6.77,26.16-10.58,37.92-18.25c5.68-3.7,10.97-8.35,16.9-11.47 c0.09,0.79,0.15,1.6,0.16,2.41C321.83,273.76,321.79,283.28,321.62,292.69z M249.74,355.19c-13.05,3.72-26.8-0.1-39.66-4.59 c-24.54-8.55-48.41-19.54-71.22-32.83c0,9.1,0.06,18.65,0.22,28.37c19.28,6.72,38.33,14.3,57.08,22.7 c17.22,7.73,35.82,16.32,53.73,10.92c7.05-2.12,13.45-6.3,19.75-10.43c5.79-3.8,11.58-7.6,17.37-11.41 c10.77-7.07,21.65-14.2,33.19-19.38c0.32-7.53,0.63-15.94,0.89-24.8c-17.7,10.8-35.38,21.6-53.07,32.4 C262.15,349.73,256.21,353.34,249.74,355.19z" style="fill: rgb(221, 123, 74);"/></g><g id="__id271_sxfrey2a0a"><path d="M322.59,312.45c-0.05,4.39-0.23,9.5-0.46,15.35l-0.38,9.07l-0.47,9.07c-0.17,3.04-0.28,6-0.51,9.12 c-0.28,3.21-1.18,6.35-2.58,9.25c-1.42,2.89-3.36,5.52-5.71,7.71c-1.15,1.11-2.49,2.09-3.77,2.95c-1.27,0.84-2.53,1.69-3.82,2.51 c-5.12,3.29-10.32,6.42-15.58,9.46c-10.51,6.06-21.2,11.79-31.98,17.35l-8.1,4.13l-2.03,1.02c-0.7,0.34-1.44,0.69-2.18,0.98 c-1.49,0.6-3.03,1.06-4.6,1.37c-3.14,0.64-6.4,0.7-9.56,0.16c-1.56-0.25-3.18-0.71-4.58-1.19c-1.45-0.47-2.91-0.92-4.34-1.42 c-11.53-3.89-22.78-8.47-33.93-13.26c-11.14-4.82-22.15-9.89-33.07-15.16l-2.05-1c-0.7-0.38-1.42-0.71-2.08-1.15 c-1.37-0.8-2.62-1.79-3.82-2.82c-2.34-2.13-4.35-4.66-5.78-7.49c-1.47-2.81-2.37-5.9-2.73-9.04c-0.08-0.78-0.12-1.59-0.16-2.36 l-0.05-2.27l-0.1-4.55c-0.06-3.03-0.16-6.06-0.17-9.09l-0.05-9.09c-0.01-6.06-0.12-12.12-0.04-18.18l0.21-18.17l0.47-18.16 l0.24-9.08c0.03-3.08,0.63-6.23,1.75-9.13c1.14-2.91,2.78-5.61,4.88-7.92c1.05-1.15,2.2-2.21,3.43-3.16l3.65-2.73 c9.87-7.1,20.31-13.3,30.88-19.21c10.6-5.87,21.37-11.4,32.28-16.66c5.56-2.64,12.09-3.17,17.98-1.42 c5.76,1.98,11.39,4.14,17.01,6.4c11.23,4.5,22.26,9.5,33.08,14.89c5.41,2.71,10.76,5.52,16.05,8.44c2.64,1.47,5.27,2.96,7.88,4.49 c1.3,0.77,2.63,1.5,3.84,2.42c1.21,0.9,2.37,1.89,3.4,3c4.19,4.39,6.63,10.36,6.77,16.41c0.02,6.04-0.05,12.07-0.07,18.11 c-0.07,13.73-0.94,13.73-0.94-0.01c-0.01-6.01-0.01-12.03-0.02-18.05c-0.17-5.79-2.51-11.49-6.53-15.67c-0.99-1.06-2.09-2-3.25-2.86 c-1.15-0.87-2.43-1.56-3.74-2.33c-2.6-1.51-5.23-2.98-7.87-4.43c-5.28-2.89-10.63-5.67-16.03-8.34 c-10.81-5.32-21.83-10.24-33.05-14.67c-2.8-1.12-5.62-2.19-8.44-3.25c-1.41-0.54-2.83-1.03-4.25-1.55 c-1.41-0.49-2.87-1.07-4.21-1.47c-5.52-1.62-11.63-1.12-16.82,1.37c-10.83,5.29-21.57,10.88-32.1,16.79 c-10.51,5.95-20.87,12.18-30.6,19.26l-3.59,2.72c-1.14,0.89-2.18,1.86-3.14,2.93c-1.91,2.13-3.41,4.62-4.44,7.29 c-1.01,2.69-1.54,5.49-1.56,8.43l-0.19,9.08l-0.38,18.16l-0.12,18.16c-0.05,6.05,0.09,12.11,0.12,18.16l0.09,9.08 c0.03,3.03,0.15,6.05,0.22,9.08l0.12,4.54l0.06,2.27c0.05,0.73,0.07,1.43,0.16,2.14c0.34,2.82,1.18,5.59,2.52,8.1 c1.3,2.53,3.13,4.77,5.24,6.67c1.09,0.91,2.21,1.8,3.45,2.5c0.59,0.39,1.25,0.68,1.87,1.02l2.05,0.98 c10.92,5.21,21.93,10.23,33.04,14.99c11.12,4.73,22.34,9.24,33.76,13.06c1.42,0.49,2.86,0.92,4.29,1.38l1.07,0.34l1.02,0.29 c0.69,0.17,1.38,0.32,2.08,0.43c2.79,0.45,5.67,0.37,8.44-0.22c1.39-0.29,2.74-0.71,4.05-1.25c0.67-0.27,1.28-0.56,1.95-0.9 l2.02-1.02l8.07-4.13c10.72-5.56,21.36-11.29,31.79-17.32c5.21-3.02,10.37-6.13,15.42-9.39l3.76-2.48c1.21-0.82,2.33-1.64,3.35-2.64 c2.06-1.94,3.76-4.25,4.99-6.79c1.22-2.54,2.01-5.31,2.25-8.12c0.2-2.91,0.33-6,0.5-8.98l0.47-9.03l0.38-9.03 c0.23-5.83,0.52-10.94,0.74-15.31c0.2-4.37,0.42-8.02,0.64-10.93c0.45-5.83,0.92-8.74,1.31-8.73c0.4,0.01,0.72,2.94,0.87,8.79 C322.58,304.41,322.61,308.07,322.59,312.45z" style="fill: rgb(86, 9, 31);"/></g><g id="__id272_sxfrey2a0a"><path d="M283.7,219.92c0,0.06,0,0.12,0,0.19c0,0.01,0,0.01,0,0.02c0,0.03,0,0.07,0,0.1c0,0.01,0,0.03,0,0.04 c-0.03,4.17-2.31,7.78-5.7,9.71c1.96,3.35,2.14,7.61,0.1,11.23c-2.01,3.59-5.7,5.64-9.54,5.72c0.16,3.8-1.62,7.59-5.02,9.85 c-3.37,2.24-7.51,2.42-10.93,0.84c-1.51,3.44-4.7,6.06-8.7,6.64c-0.58,0.09-1.15,0.12-1.71,0.12c-3.33-0.02-6.4-1.52-8.47-3.95 c-2.8,2.49-6.78,3.53-10.64,2.41c-3.88-1.13-6.69-4.17-7.7-7.8c-3.63,1.08-7.71,0.3-10.74-2.4c0,0,0,0,0-0.01 c-3.06-2.74-4.26-6.77-3.53-10.53c-3.8-0.67-7.15-3.28-8.59-7.16c-1.45-3.9-0.6-8.1,1.87-11.1c-3-2.41-4.69-6.28-4.11-10.37 c0.55-3.9,3.05-7.06,6.37-8.61c-1.61-3.23-1.65-7.18,0.25-10.56c1.9-3.37,5.27-5.39,8.86-5.7c-0.41-3.62,0.95-7.37,3.94-9.89 c3.11-2.62,7.23-3.26,10.82-2.05c1.19-3.73,4.29-6.73,8.4-7.6c4.23-0.89,8.41,0.71,10.99,3.82c3.07-2.57,7.42-3.43,11.41-1.84 c3.81,1.52,6.33,4.88,6.94,8.65c3.66-0.66,7.56,0.49,10.27,3.41c2.64,2.83,3.53,6.67,2.72,10.18c3.52,0.71,6.64,3.08,8.15,6.64 c1.5,3.54,1.06,7.43-0.87,10.45C281.67,212.39,283.73,215.92,283.7,219.92z" style="fill: rgb(109, 54, 29);"/></g><g id="__id273_sxfrey2a0a"><path d="M189.84,172.29c-5.69,0.65-11.3-0.87-16.21-3.26c-2.47-1.2-4.82-2.65-7.02-4.19 c-2.2-1.53-4.31-3.12-6.46-4.56c-2.14-1.44-4.35-2.71-6.65-3.62c-2.26-0.91-4.86-1.29-7.57-2.27c-1.35-0.49-2.7-1.2-3.88-2.05 c-1.18-0.86-2.24-1.86-3.18-2.94c-1.86-2.18-3.28-4.63-4.32-7.2c-2.15-5.13-2.97-10.75-2.54-16.26c0.44-5.5,2.13-10.93,5.08-15.64 c2.95-4.71,7.07-8.61,11.81-11.41c5.27-3.09,9.9-3.92,12.88-4.08c1.51-0.05,2.64,0.02,3.37,0.2c0.74,0.15,1.12,0.34,1.13,0.53 c0.01,0.2-0.34,0.41-1.05,0.63c-0.72,0.2-1.77,0.47-3.13,0.8c-2.71,0.73-6.79,1.85-11.57,4.67c-4.33,2.56-8.08,6.13-10.74,10.38 c-2.66,4.25-4.22,9.2-4.62,14.23c-0.4,5.03,0.35,10.16,2.29,14.81c1.89,4.62,5.05,8.9,9.59,10.5c2.28,0.85,4.97,1.27,7.61,2.33 c2.6,1.04,4.98,2.45,7.2,3.97c4.46,3.05,8.45,6.41,13.08,8.64c4.57,2.25,9.65,3.63,14.64,3.08c5-0.51,9.62-3.1,14.31-5.53 c2.36-1.22,4.78-2.43,7.36-3.33c2.58-0.92,5.26-1.43,7.89-1.86c5.25-0.84,10.54-1.26,15.25-3.28c4.69-1.99,8.56-5.72,11.07-10.21 c2.52-4.49,3.79-9.7,3.57-14.86c-0.22-5.18-1.84-10.27-4.4-14.81c-2.56-4.55-6.03-8.58-10.08-11.9c-4.05-3.33-8.65-5.97-13.48-8.05 c-4.83-2.07-9.88-3.6-15.02-4.74c-11.58,1.3-23.14,2.59-34.69,3.89c-6.78,0.77-6.84-0.11-0.07-0.94c11.5-1.41,23.02-2.81,34.64-4.23 l0.18-0.02l0.18,0.04c5.21,1.11,10.37,2.59,15.32,4.66c4.95,2.06,9.7,4.72,13.93,8.12c4.23,3.4,7.89,7.54,10.62,12.27 c2.73,4.72,4.51,10.07,4.81,15.6c0.29,5.54-1,11.13-3.66,16c-2.64,4.87-6.84,9.04-12.02,11.29c-5.18,2.26-10.66,2.71-15.78,3.6 c-2.57,0.45-5.09,0.96-7.45,1.83c-2.38,0.85-4.68,2.02-7,3.25c-2.33,1.23-4.68,2.53-7.19,3.63 C195.37,171.09,192.67,171.98,189.84,172.29z M283.79,214.51c-0.82-1.75-2.07-3.28-3.58-4.48c1.67-3.25,1.86-7.23,0.4-10.6 c-1.4-3.37-4.38-6.02-7.88-7.08c0.47-3.68-0.76-7.56-3.36-10.22c-2.55-2.74-6.41-4.14-10.13-3.81c-0.46-1.73-1.28-3.36-2.42-4.75 c-1.39-1.7-3.25-3.01-5.3-3.77c-2.05-0.77-4.32-0.98-6.48-0.59c-1.79,0.31-3.49,1.04-4.98,2.08c-1.31-1.3-2.88-2.32-4.62-2.94 c-2.09-0.75-4.39-0.91-6.56-0.47c-2.17,0.43-4.23,1.45-5.87,2.93c-1.38,1.24-2.45,2.79-3.16,4.5c-3.68-0.89-7.76,0-10.66,2.43 c-2.97,2.38-4.65,6.2-4.51,9.97c-3.61,0.62-6.89,2.91-8.64,6.12c-1.82,3.22-1.98,7.24-0.57,10.61c-3.33,1.88-5.69,5.38-6.08,9.17 c-0.48,3.83,1.08,7.77,3.91,10.32c-1.64,2.29-2.45,5.14-2.22,7.92c0.22,2.29,0.95,3.26,1.07,3.2c0.21-0.08-0.15-1.13-0.32-3.25 c-0.2-2.86,0.76-5.77,2.6-7.95l0.03-0.03l-0.03-0.03c-2.97-2.38-4.56-6.32-4.04-10.06c0.44-3.75,2.95-7.14,6.37-8.68l0.21-0.09 l-0.1-0.21c-1.6-3.22-1.48-7.2,0.32-10.28c1.75-3.11,5.09-5.21,8.62-5.45l0.44-0.03l-0.05-0.44c-0.4-3.62,1.18-7.34,4.02-9.55 c2.8-2.27,6.76-2.92,10.11-1.73l0.62,0.22l0.2-0.64c1.16-3.62,4.39-6.44,8.1-7.09c3.69-0.73,7.68,0.76,10,3.66l0.54,0.68l0.68-0.57 c2.82-2.35,6.89-3.02,10.26-1.68c3.41,1.26,5.96,4.44,6.48,8l0.16,1.07l1.08-0.19c3.32-0.6,6.88,0.57,9.15,3.04 c2.33,2.42,3.27,6.01,2.49,9.24l-0.29,1.2l1.22,0.24c3.21,0.64,6,2.93,7.24,5.94c1.29,2.99,0.97,6.57-0.8,9.29l-0.69,1.06l1.07,0.7 c1.56,1.02,2.82,2.47,3.62,4.15c0.8,1.7,1.06,3.53,0.9,5.46c-0.31,3.23-1.77,5.36-2.8,6.66c-1.06,1.32-1.75,1.95-1.58,2.25 c0.04,0.07,0.15,0.11,0.31,0.11c0.06,0.33,0.27,0.91,0.59,1.78c1.2,3.36,0.66,7.25-1.4,10.12c-2,2.92-5.46,4.7-8.94,4.71l-0.24,0 l0.01,0.24c0.14,3.77-1.82,7.49-4.96,9.48c-3.1,2.06-7.23,2.3-10.52,0.69l-0.52-0.25l-0.24,0.54c-1.48,3.3-4.71,5.7-8.25,6.13 c-3.53,0.49-7.21-0.97-9.42-3.69l-0.57-0.7l-0.7,0.62c-0.18,0.16-0.37,0.29-0.56,0.43c-0.04-0.03-0.08-0.06-0.12-0.09 c0.35-0.37,0.68-0.75,0.98-1.13c3.82-4.98,3.23-11.83-1.3-15.31c-3.75-2.87-9.03-2.52-12.9,0.5c-0.07-0.22-0.13-0.44-0.2-0.64 c-2.16-5.89-8.25-9.08-13.61-7.12c-2.16,0.79-3.87,2.31-5,4.21c-1-0.28-1.96-0.71-2.83-1.29c-1.75-1.16-2.79-2.4-3.53-3.22 c-0.73-0.84-1.2-1.29-1.51-1.18c-0.28,0.1-0.42,0.8-0.01,2.03c0.41,1.21,1.44,3.02,3.65,4.49c0.98,0.65,2.06,1.15,3.18,1.5 c-0.73,2.37-0.71,5.06,0.24,7.67c0.08,0.21,0.17,0.41,0.26,0.62c-4.91,0.19-9.17,3.32-10.18,7.94c-1.22,5.58,2.75,11.19,8.88,12.54 c0.47,0.1,0.97,0.18,1.47,0.23c-1.04,4.59,0.71,9.32,4.67,11.58c4.96,2.83,11.5,0.71,14.61-4.74c0.34-0.59,0.63-1.23,0.9-1.91 c0.64,0.34,1.28,0.65,1.92,0.88c5.89,2.16,12.26-0.44,14.22-5.8c1.04-2.83,0.63-5.85-0.84-8.4c2.53,1.61,5.62,2.33,8.59,1.86 c3.81-0.54,7.23-3.03,9.02-6.4c3.63,1.29,7.86,0.79,11.02-1.4c3.25-2.15,5.25-5.95,5.33-9.81c3.53-0.37,6.86-2.32,8.8-5.27 c2.17-3.16,2.65-7.36,1.31-10.91c-0.31-0.8-0.64-1.31-0.88-1.58c0.48-0.11,1.18-0.41,2.05-1.04c0.79-0.58,1.7-1.45,2.5-2.74 c0.8-1.27,1.47-2.96,1.65-4.98C285.11,219.04,284.8,216.61,283.79,214.51z M257.16,227.65c1.44-0.96,2.7-2.2,3.7-3.68 c0.99-1.48,1.71-3.21,1.94-5.06c0.24-1.85-0.04-3.79-0.81-5.49c-0.77-1.7-2.03-3.17-3.58-4.13c-0.37-0.23-0.69-0.36-0.89-0.45 c-0.2-0.09-0.28-0.16-0.28-0.16s0.08,0.07,0.2,0.25c0.13,0.17,0.29,0.46,0.52,0.81c0.94,1.45,1.64,2.94,2.13,4.46 c0.49,1.51,0.76,3.07,0.75,4.62c-0.03,3.08-1.18,6.39-3.72,8.79C256.78,227.95,256.75,227.91,257.16,227.65z M253.23,244.54 c-2.31,1.84-5.4,3.08-8.73,2.7c-0.48-0.04-0.46-0.09-0.02,0.06c1.59,0.47,3.28,0.64,4.98,0.46c1.7-0.18,3.41-0.7,4.93-1.64 c1.52-0.94,2.81-2.27,3.66-3.84c0.86-1.56,1.28-3.34,1.21-5.08c-0.02-0.42-0.08-0.74-0.12-0.94c-0.03-0.21-0.02-0.31-0.02-0.31 c0.03,0-0.13,0.4-0.49,1.13c-0.68,1.52-1.45,2.9-2.34,4.15C255.4,242.49,254.39,243.6,253.23,244.54z M246.46,189.82 c-0.06-0.18-0.13-0.4-0.22-0.65c-0.81-2.01-2.46-3.72-4.45-4.77c-1.99-1.07-4.36-1.49-6.62-1.15c-2.26,0.33-4.34,1.34-6.02,2.73 c-1.68,1.39-2.98,3.17-3.8,5.08c-0.22,0.55-0.26,0.53,0.05,0.03c1.06-1.76,2.59-3.23,4.35-4.24c1.76-1.01,3.73-1.58,5.65-1.66 c1.92-0.09,3.8,0.33,5.54,1.07c1.74,0.74,3.37,1.78,4.77,3.25c0.33,0.36,0.61,0.63,0.75,0.84c0.16,0.2,0.22,0.31,0.22,0.31 s-0.05-0.11-0.11-0.36C246.53,190.14,246.49,189.99,246.46,189.82z M223.3,207.82c-1,1.51-1.58,3.31-1.66,5.13 c-0.09,1.81,0.28,3.61,0.97,5.21c0.69,1.61,1.68,3.04,2.87,4.22c0.35,0.33,0.31,0.35,0.05-0.03c-0.95-1.34-1.6-2.9-1.91-4.49 c-0.31-1.6-0.3-3.22-0.03-4.75c0.27-1.52,0.8-2.95,1.5-4.29c0.7-1.34,1.53-2.62,2.62-3.84c0.27-0.29,0.46-0.54,0.61-0.68 c0.15-0.15,0.23-0.2,0.23-0.2s-0.09,0.05-0.29,0.09c-0.2,0.04-0.52,0.1-0.91,0.26C225.72,205.09,224.3,206.31,223.3,207.82z M205.45,207.49c0.82-1.27,1.79-2.45,3.06-3.5c0.31-0.25,0.54-0.46,0.71-0.58c0.17-0.12,0.26-0.16,0.26-0.16s-0.09,0.03-0.3,0.05 c-0.21,0.01-0.53,0.02-0.95,0.12c-1.72,0.4-3.31,1.48-4.46,2.91c-1.15,1.42-1.89,3.21-2.09,5.04c-0.21,1.82,0.06,3.65,0.65,5.3 c0.6,1.66,1.5,3.15,2.6,4.43c0.33,0.35,0.28,0.38,0.05-0.03c-0.85-1.42-1.41-3.02-1.63-4.65c-0.22-1.62-0.12-3.26,0.26-4.77 C203.98,210.15,204.63,208.76,205.45,207.49z M266.1,198.92c1.43,2.01,2.55,4.41,2.92,7.15c0.07,0.39,0.02,0.39,0.06,0 c0.1-1.36,0.09-2.73-0.1-4.12c-0.19-1.39-0.57-2.79-1.24-4.09c-0.66-1.3-1.61-2.48-2.79-3.35c-1.18-0.87-2.59-1.43-4.04-1.56 c-0.35-0.03-0.62,0-0.8,0.01c-0.17,0.01-0.25-0.02-0.25-0.02c0.01-0.03,0.3,0.18,0.83,0.6C262.89,195.2,264.65,196.91,266.1,198.92z M218.24,186.23c-0.16-0.02-0.41-0.06-0.74-0.04c-1.35,0.06-2.69,0.55-3.83,1.36c-1.14,0.81-2.06,1.94-2.64,3.23 c-1.18,2.59-0.9,5.63,0.4,7.84c0.2,0.31,0.15,0.32,0.06-0.02c-0.37-1.19-0.39-2.48-0.14-3.68c0.26-1.2,0.78-2.31,1.43-3.27 c0.65-0.96,1.42-1.78,2.23-2.56c0.82-0.78,1.69-1.53,2.7-2.3c0.48-0.4,0.76-0.59,0.76-0.56 C218.47,186.23,218.4,186.25,218.24,186.23z M218.47,233.16c-0.5-0.55-0.74-0.87-0.71-0.88c0,0,0.03,0.09,0.05,0.28 c0.01,0.19,0.01,0.49,0.09,0.87c0.32,1.57,1.11,3.08,2.23,4.3c1.12,1.23,2.58,2.17,4.17,2.7c3.2,1.08,6.77,0.45,9.32-1.3 c0.36-0.26,0.38-0.22-0.02-0.05c-1.39,0.61-2.93,0.83-4.42,0.71c-1.49-0.12-2.92-0.56-4.19-1.19c-1.27-0.63-2.41-1.45-3.47-2.36 C220.46,235.32,219.46,234.32,218.47,233.16z" style="fill: rgb(86, 9, 31);"/></g><g id="__id274_sxfrey2a0a"><path d="M227.42,105.16l-0.23,2.25c-0.01,0.1-0.02,0.19-0.03,0.29s-0.02,0.2-0.03,0.29l-0.01,0.1l0,0 c-1.9,16.06-18.11,27.5-36.41,25.6c-18.3-1.9-31.81-16.42-30.38-32.53l-0.01,0l0.3-2.93c1.3-12.55,12.42-21.67,24.84-20.38 c1.83,0.19,3.55,0.7,5.11,1.46c3.53,1.72,7.61,2.15,11.42,1.18c1.69-0.43,3.48-0.57,5.3-0.38h0 C219.71,81.41,228.72,92.62,227.42,105.16z" style="fill: rgb(109, 54, 29);"/></g><g id="__id275_sxfrey2a0a"><path d="M227.09,108.46l0.06,0.05l-0.16,0.02l0,0L227.09,108.46z M227.44,108.13l-0.42,0.27l0,0l0.06,0.06l0.24-0.16 C227.37,108.22,227.41,108.16,227.44,108.13z M227.15,108.51l0.07,0.06l0.01-0.02c0.01-0.02,0.01-0.04,0.02-0.05L227.15,108.51z M207.79,37.19c4.52-9.4,10.52-18.1,18.1-25.3c2.57-2.44,9.27-6.61,5.52-10.8c-1.81-2.02-4.23-0.83-6.07,0.47 c-2.02,1.43-3.77,3.19-5.32,5.11c-5.49,6.8-9.41,14.79-12.72,22.83c-3.56,8.65-6.36,17.61-8.65,26.67 c-1.92,7.6-3.48,15.3-4.59,23.06c-0.91-0.23-1.8-0.54-2.65-0.94c-1.7-0.85-3.7-1.48-5.67-1.68c-0.98-0.05-1.95-0.14-2.92-0.12 c-0.97,0.07-1.95,0.05-2.91,0.24c-3.86,0.54-7.59,2.02-10.71,4.36c-0.39,0.29-0.78,0.58-1.16,0.88l-1.08,0.98 c-0.75,0.62-1.34,1.41-2.01,2.11c-1.21,1.52-2.33,3.12-3.15,4.89c-0.21,0.44-0.43,0.87-0.62,1.32l-0.5,1.37 c-0.38,0.9-0.53,1.87-0.8,2.8c-0.19,0.95-0.32,1.92-0.45,2.86l-0.28,2.75l-0.15,1.44l0.07-0.01c-0.13,3.69,0.5,7.39,1.81,10.83 c1.47,3.88,3.77,7.41,6.62,10.38c5.68,5.99,13.51,9.69,21.57,10.78c8.06,1.13,16.54-0.23,23.63-4.31c3.54-2.02,6.73-4.67,9.26-7.87 c2.54-3.19,4.4-6.93,5.34-10.9c0.28-1.46,0.36-2.45,0.34-2.93l0.03,0l-0.05-0.18c0-0.02-0.01-0.03-0.01-0.05l-0.02-0.08 c-0.03-0.11-0.07-0.12-0.13-0.01l-0.08,0.15l-0.04,0.02c-0.03,0.05-0.06,0.12-0.08,0.2l0.01,0l-0.03,0.06 c-0.18,0.49-0.4,1.37-0.66,2.65c-0.95,3.86-2.81,7.47-5.32,10.53c-2.5,3.07-5.63,5.61-9.09,7.52c-6.93,3.86-15.16,5.05-22.92,3.85 c-7.77-1.16-15.21-4.83-20.52-10.59c-2.66-2.86-4.78-6.22-6.1-9.86c-1.34-3.64-1.85-7.57-1.47-11.41l0.04-0.41l0.26-2.33 c0.14-0.89,0.26-1.76,0.45-2.63c0.26-0.85,0.4-1.73,0.76-2.55l0.47-1.24c0.17-0.41,0.39-0.8,0.58-1.2c0.76-1.6,1.8-3.05,2.91-4.42 c1.19-1.3,2.43-2.57,3.9-3.56c2.84-2.09,6.22-3.4,9.7-3.86c0.86-0.17,1.75-0.14,2.62-0.19c0.87-0.02,1.75,0.08,2.62,0.13 c1.72,0.2,3.32,0.69,4.91,1.5c1.08,0.51,2.21,0.9,3.37,1.19c-0.14,1.12-0.28,2.24-0.41,3.35c-0.23,2.04,2.97,2.03,3.2,0 c0.11-0.96,0.24-1.91,0.37-2.87c1.68,0.11,3.37-0.01,5.02-0.38c1.76-0.45,3.38-0.59,5.1-0.43c0.85,0.13,1.72,0.25,2.57,0.42 c0.83,0.25,1.7,0.39,2.5,0.74c6.58,2.3,11.79,8.07,13.48,14.82c0.88,3.39,0.88,6.04,0.99,7.84c0.04,1.87,0.27,2.82,0.58,2.85 c0.32,0.04,0.72-0.86,1.16-2.67c0.38-1.86,0.72-4.86-0.26-8.66c-1.87-7.53-7.69-13.99-15.07-16.55c-0.9-0.38-1.86-0.55-2.8-0.82 c-0.95-0.21-1.91-0.33-2.88-0.47c-1.96-0.2-4.06,0.02-5.88,0.5c-1.37,0.32-2.78,0.43-4.19,0.37c2-14.4,5.59-28.71,10.51-42.35 C207.72,37.29,207.76,37.24,207.79,37.19z M183.82,196.75c-11.24-5.93-22.53-11.89-33.84-17.85c-11.27-5.99-22.46-12.1-33.43-18.59 c-1.33-0.78-2.31-1.42-2.97-1.82c-0.66-0.4-1-0.58-1-0.58s0.35,0.16,1.07,0.44c0.72,0.28,1.82,0.66,3.26,1.23 c11.88,4.76,23.23,10.71,34.25,17.18c11.04,6.46,21.8,13.35,32.7,19.92C185.4,197.63,185.43,197.58,183.82,196.75z" style="fill: rgb(86, 9, 31);"/></g><g id="__id276_sxfrey2a0a"><path d="M30.62,199.99c4.43-2.19,8.84-4.27,13.06-6.2c1.6-0.74,3.18-1.45,4.72-2.15c1.63-0.05,3.27-0.08,4.91-0.11 c8.43-0.18,16.86-0.13,25.29,0.14c10.4,0.34,20.52,1.3,30.56,3.07c4.26,2.11,8.33,4.22,12.2,6.29c-14.51,0.11-28.93-0.28-43.45-0.62 c-8.46-0.19-16.92-0.16-25.37,0.1C45.13,200.74,37.89,201.31,30.62,199.99z M157.91,222.9c-0.64-0.43-1.3-0.87-1.99-1.33 c-10.01-2.88-20.67-4.25-30.83-5.63c-13.91-1.89-27.92-2.78-41.94-3.38c-13.31-0.57-26.63-0.66-39.95-0.59 c-9.57,0.05-20.04-0.8-29.81,0.67c-2.08,2.69-3.76,5.66-5,8.83c11.01,2.25,23.09,0.66,34.15,0.57c13.35-0.11,26.71,0,40.06,0.33 c13.31,0.33,26.59,1.13,39.87,1.96c13.4,0.84,26.93,3.14,40.34,3.11c0.06,0,0.11,0,0.16-0.01c-0.34-0.4-0.69-0.79-1.06-1.17 C160.72,225.01,159.38,223.88,157.91,222.9z M145.91,241.74c-16.35-3.94-33.22-5.2-50-6.05c-8.44-0.43-16.87-0.58-25.32-0.57 c-7.55,0.01-16.14-0.66-22.82,3.42c-0.67,0.42-0.63,1.45,0.06,1.82c6.64,3.54,14.79,2.71,22.08,2.72c8.45,0,16.9,0.17,25.34,0.33 c16.81,0.32,33.63,1.46,50.43,0.97C147.21,244.33,147.37,242.09,145.91,241.74z M153.22,117.25c1.2,1.45,2.65,2.65,4.28,3.58 c0.82,0.47,1.69,0.88,2.61,1.11c0.8,0.2,1.83,0.47,2.64,0.26c0.43-0.11,0.37-0.67,0.05-0.86c-0.67-0.42-1.58-0.54-2.31-0.87 c-0.77-0.34-1.54-0.66-2.27-1.08c-1.47-0.85-2.8-2.01-3.89-3.32c-1.14-1.36-2.04-2.92-2.68-4.58c-0.67-1.72-0.96-3.56-1.65-5.26 c-0.1-0.25-0.48-0.26-0.54,0.03c-0.39,1.96,0.15,3.98,0.84,5.83C150.99,113.94,151.96,115.72,153.22,117.25z M155.81,136.08 c6.71,1.3,13.78,0.19,19.92-2.77c0.7-0.34,0.28-1.46-0.44-1.14c-5.99,2.69-12.68,3.41-19.12,2.12c-2.99-0.6-5.87-1.66-8.56-3.11 c-2.6-1.41-4.96-3.22-7.51-4.7c-0.24-0.14-0.48,0.16-0.35,0.38C142.99,132.12,150,134.95,155.81,136.08z M190.1,138.53 c0.5-0.61-0.39-1.26-0.92-0.75c-4.35,4.18-9.89,7.16-15.7,8.72c-3.32,0.89-6.74,1.39-10.18,1.53c-3.43,0.14-6.87,0.02-10.3,0.23 c-0.46,0.03-0.47,0.64-0.07,0.77c6.77,2.25,14.78,1.62,21.53-0.44C180.52,146.72,186.05,143.45,190.1,138.53z M240.39,138.99 c-0.43-2.65-1.14-5.24-2.16-7.72c-2.03-4.94-5.05-9.26-9.09-12.75c-0.76-0.66-1.77,0.44-1.06,1.15c3.51,3.51,6.39,7.82,8.2,12.44 c0.88,2.25,1.57,4.6,1.98,6.98c0.4,2.34,0.27,4.97,1.11,7.2c0.12,0.31,0.59,0.39,0.75,0.06 C241.16,144.16,240.77,141.31,240.39,138.99z M218.47,128.07c-0.27-0.31-0.8,0.08-0.65,0.43c1.69,4.25,3.29,8.54,3.6,13.15 c0.15,2.28,0.04,4.56-0.36,6.81c-0.37,2.13-1.27,4.29-1.3,6.45c-0.01,0.42,0.53,0.53,0.79,0.27c1.61-1.61,2.17-4.33,2.53-6.51 c0.4-2.42,0.51-4.91,0.32-7.36C223.02,136.57,221.66,131.72,218.47,128.07z M204.73,135.81c-0.71,1.33-1.01,2.82-1.46,4.26 c-0.48,1.54-1.09,3.03-1.8,4.48c-1.39,2.85-3.22,5.46-5.33,7.83c-2.09,2.36-4.51,4.4-7.18,6.08c-1.33,0.83-2.68,1.57-4.09,2.26 c-1.08,0.53-2.89,1.23-3.22,2.5c-0.06,0.24,0.06,0.54,0.25,0.69c1.13,0.88,3.23,0.05,4.39-0.47c1.55-0.7,3.06-1.52,4.47-2.48 c2.75-1.87,5.24-4.16,7.37-6.72c2.12-2.54,3.85-5.43,5.17-8.46c1.24-2.86,2.82-6.7,2.16-9.85 C205.37,135.58,204.92,135.46,204.73,135.81z M221.43,99.06c-0.36-2.79-1.15-5.63-2.53-8.27c-0.7-1.31-1.53-2.57-2.54-3.7 c-1.01-1.13-2.27-2.22-3.91-2.83c-0.82-0.29-1.41,0.43-1.54,1.21c-0.13,0.79-0.03,1.6,0.43,1.78c2,0.82,3.95,2.89,5.55,4.93 c1.59,2.11,2.86,4.5,3.63,7.08C220.63,99.63,221.49,99.46,221.43,99.06z" style="fill: rgb(242, 214, 195);"/></g><g id="__id277_sxfrey2a0a"><path d="M287.25,239.56c0.9,7.8-5.83,13.43-11.77,17.3c-3,1.95-6.16-2.78-3.12-4.54c5.62-3.26,9.77-7.25,12.49-13.21 C285.38,237.93,287.11,238.35,287.25,239.56z M277.82,265.74c-5.68,0.38-11.07,0.7-16.19-2.23c-3.23-1.84-6,3.55-2.64,5.13 c6.14,2.88,14.44,3.54,19.24-2.09C278.5,266.23,278.24,265.71,277.82,265.74z M245.24,267.82c-0.52-0.43-1.39,0.04-1.28,0.72 c0.77,4.73-0.28,9.33-2.85,13.31c-2.02,3.12,3.27,5.65,5.24,2.51C249.72,278.99,250.48,272.13,245.24,267.82z M305.19,253.22 c-5.8-2.16-12.78,1.99-16.31,6.65c-1.94,2.56,1.84,5.91,3.75,3.32c2.78-3.78,7.69-7.65,12.34-8.68 C305.54,254.38,305.9,253.48,305.19,253.22z M191.7,246.81c-2.16-0.61-4.03,0.1-6.16,0.45c-2.5,0.41-4.98,0.25-7.45-0.25 c-2.89-0.58-3.69,3.84-0.84,4.49c4.31,0.98,13.04,1.37,14.9-3.84C192.29,247.27,192.1,246.92,191.7,246.81z M182.92,242.74 c0.98-1.69,1.47-3.72,2.37-5.49c1.02-2.01,2-3.87,3.69-5.4c0.81-0.73-0.01-1.9-0.98-1.38c-4.05,2.18-9.07,5.73-9.39,10.84 C178.45,243.87,181.56,245.1,182.92,242.74z M172.32,262.51c-3.99-0.48-8.73-4.91-9.59-8.84c-0.67-3.05-5.52-1.56-4.68,1.53 c1.75,6.4,7.79,9.7,14.16,9.2C173.27,264.33,173.43,262.64,172.32,262.51z M187.16,268.45c-1.4-0.78-2.42-2.66-3.17-4.01 c-0.79-1.43-1.76-3.04-2.29-4.59c-0.46-1.34-2.45-1.08-2.7,0.25c-0.5,2.69-0.57,4.88,0.6,7.47c1.11,2.45,2.86,4.63,5.16,6.02 C187.86,275.46,190.36,270.24,187.16,268.45z M221.84,282.81c-3.43-1.05-4.63,4.87-0.96,5.63c1.98,0.41,3.9,0.58,5.8,1.37 c1.83,0.77,3.37,1.99,4.98,3.13c0.79,0.56,2.21-0.14,1.7-1.2C231.06,286.87,226.89,284.35,221.84,282.81z M234.66,268.22 c-0.73,3.07-3.16,5.81-6.28,6.58c-2.9,0.72-6.37-0.03-8.91-1.65c-1.46,2.32-3.93,4.09-6.41,5.1c-2.59,1.04-6.43,1.55-8.68-0.51 c-2.34-2.14-1.95-6.03-1.09-8.99c-3.55,0.33-7.12-1.34-8.84-4.61c-1.74-3.32-1.54-8.13,2.16-9.95c0.34-0.17,0.59,0.38,0.3,0.58 c-1.27,0.86-1.76,2.98-1.91,4.44c-0.16,1.59,0.21,3.25,1.03,4.61c1.69,2.83,5.1,4.02,8.24,3.31c0.59-0.13,0.89,0.58,0.72,1.03 c-0.85,2.32-1.66,6.01-0.03,8.15c1.67,2.18,5.44,1.54,7.62,0.67c2.38-0.95,4.87-2.71,6.09-5.02c0.2-0.38,0.66-0.49,1.01-0.23 c4.75,3.55,12.63,2.75,14.38-3.63C234.16,267.74,234.76,267.83,234.66,268.22z" style="fill: rgb(221, 123, 74);"/></g><g id="__id278_sxfrey2a0a"><path d="M329.32,93.84c-28.59,0-34.72,6.13-34.72,34.72c0-28.59-6.13-34.72-34.72-34.72 c28.59,0,34.72-6.13,34.72-34.72C294.59,87.71,300.72,93.84,329.32,93.84z M70.41,130.31c0,19.04-4.08,23.12-23.12,23.12 c19.04,0,23.12,4.08,23.12,23.12c0-19.04,4.08-23.12,23.12-23.12C74.49,153.43,70.41,149.35,70.41,130.31z M201.61,168.31 c0,14.72-3.15,17.87-17.87,17.87c14.72,0,17.87,3.15,17.87,17.87c0-14.72,3.15-17.87,17.87-17.87 C204.76,186.19,201.61,183.03,201.61,168.31z M355.02,336.76c0,14.72-3.15,17.87-17.87,17.87c14.72,0,17.87,3.15,17.87,17.87 c0-14.72,3.15-17.87,17.87-17.87C358.18,354.64,355.02,351.48,355.02,336.76z M121.36,53.96c0,14.72-3.15,17.87-17.87,17.87 c14.72,0,17.87,3.15,17.87,17.87c0-14.72,3.15-17.87,17.87-17.87C124.52,71.83,121.36,68.68,121.36,53.96z" style="fill: rgb(250, 239, 214);"/></g><g id="__id279_sxfrey2a0a"><path d="M139.61,71.19c-4.45-0.01-10.56,0.22-13.96-3.25c-3.42-3.5-3.26-9.57-3.27-14.08c0-0.94-2.04-0.56-2.04,0.21 c-0.01,4.4,0.21,10.46-3.04,13.93c-3.2,3.42-9.17,3.18-13.44,3.19c-0.42,0-1.15,0.12-1.33,0.58c-0.16,0.42,0.14,0.71,0.58,0.71 c4.45,0.01,10.56-0.22,13.96,3.25c3.42,3.5,3.26,9.57,3.27,14.08c0,0.35,0.29,0.52,0.65,0.55c0.09,0.01,0.19,0,0.29-0.01 c0.03,0,0.05,0,0.08,0c0.51-0.07,1.02-0.36,1.02-0.75c0.01-4.4-0.21-10.46,3.04-13.93c3.2-3.42,9.17-3.18,13.44-3.19 c0.42,0,1.15-0.12,1.33-0.58C140.35,71.47,140.05,71.19,139.61,71.19z M126.41,73.25c-2.59,1.35-4.13,3.6-4.98,6.25 c-0.27-0.91-0.61-1.8-1.06-2.63c-1.65-3.05-4.75-4.47-8.04-5.08c0,0-0.01,0-0.01,0c1.39-0.3,2.73-0.73,3.98-1.38 c2.59-1.35,4.13-3.6,4.98-6.25c0.27,0.91,0.61,1.8,1.06,2.63c1.65,3.05,4.75,4.47,8.04,5.08c0,0,0.01,0,0.01,0 C129.01,72.17,127.66,72.6,126.41,73.25z M373.27,353.99c-4.45-0.01-10.56,0.22-13.96-3.25c-3.42-3.5-3.26-9.57-3.27-14.08 c0-0.94-2.04-0.56-2.04,0.21c-0.01,4.4,0.21,10.46-3.04,13.93c-3.2,3.42-9.17,3.18-13.44,3.19c-0.42,0-1.15,0.12-1.33,0.58 c-0.16,0.42,0.14,0.71,0.58,0.71c4.45,0.01,10.56-0.22,13.96,3.25c3.42,3.5,3.26,9.57,3.27,14.08c0,0.35,0.29,0.52,0.65,0.55 c0.09,0.01,0.19,0,0.29-0.01c0.03,0,0.05,0,0.08,0c0.51-0.07,1.02-0.36,1.02-0.75c0.01-4.4-0.21-10.46,3.04-13.93 c3.2-3.42,9.17-3.18,13.44-3.19c0.42,0,1.15-0.12,1.33-0.58C374.01,354.28,373.71,353.99,373.27,353.99z M360.08,356.06 c-2.59,1.35-4.13,3.6-4.98,6.25c-0.27-0.91-0.61-1.8-1.06-2.63c-1.65-3.05-4.75-4.47-8.04-5.08c0,0-0.01,0-0.01,0 c1.39-0.3,2.73-0.73,3.98-1.38c2.59-1.35,4.13-3.6,4.98-6.25c0.27,0.91,0.61,1.8,1.06,2.63c1.65,3.05,4.75,4.47,8.04,5.08 c0,0,0.01,0,0.01,0C362.67,354.98,361.32,355.41,360.08,356.06z M219.86,185.54c-4.45-0.01-10.56,0.22-13.96-3.25 c-3.42-3.5-3.26-9.57-3.27-14.08c0-0.94-2.04-0.56-2.04,0.21c-0.01,4.4,0.21,10.46-3.04,13.93c-3.2,3.42-9.17,3.18-13.44,3.19 c-0.42,0-1.15,0.12-1.33,0.58c-0.16,0.42,0.14,0.71,0.58,0.71c4.45,0.01,10.56-0.22,13.96,3.25c3.42,3.5,3.26,9.57,3.27,14.08 c0,0.35,0.29,0.52,0.65,0.55c0.09,0.01,0.19,0,0.29-0.01c0.03,0,0.05,0,0.08,0c0.51-0.07,1.02-0.36,1.02-0.75 c0.01-4.4-0.21-10.46,3.04-13.93c3.2-3.42,9.17-3.18,13.44-3.19c0.42,0,1.15-0.12,1.33-0.58 C220.6,185.83,220.29,185.54,219.86,185.54z M206.66,187.61c-2.59,1.35-4.13,3.6-4.98,6.25c-0.27-0.91-0.61-1.8-1.06-2.63 c-1.65-3.05-4.75-4.47-8.04-5.08c0,0-0.01,0-0.01,0c1.39-0.3,2.73-0.73,3.98-1.38c2.59-1.35,4.13-3.6,4.98-6.25 c0.27,0.91,0.61,1.8,1.06,2.63c1.65,3.05,4.75,4.47,8.04,5.08c0,0,0.01,0,0.01,0C209.25,186.53,207.91,186.96,206.66,187.61z M93.91,152.79c-5.1-0.01-11.01,0.09-15.65-2.38c-3.74-1.99-5.38-5.77-6.11-9.77c-0.63-3.43-0.71-6.95-0.72-10.43 c0-0.94-2.04-0.56-2.04,0.21c-0.01,5.1,0.07,10.97-2.29,15.64c-1.87,3.71-5.39,5.35-9.33,6.05c-3.32,0.59-6.73,0.67-10.1,0.68 c-0.42,0-1.15,0.12-1.33,0.58c-0.16,0.42,0.14,0.71,0.58,0.71c5.1,0.01,11.01-0.09,15.65,2.38c3.74,1.99,5.38,5.77,6.11,9.77 c0.63,3.43,0.71,6.95,0.72,10.43c0,0.35,0.29,0.52,0.65,0.55c0.6,0.05,1.39-0.28,1.39-0.76c0.01-5.1-0.07-10.97,2.29-15.64 c1.87-3.71,5.39-5.35,9.33-6.05c3.32-0.59,6.73-0.67,10.1-0.68c0.42,0,1.15-0.12,1.33-0.58C94.65,153.07,94.35,152.79,93.91,152.79z M77.05,155.43c-3.61,1.9-5.58,5.19-6.56,8.97c-0.37-1.51-0.89-2.97-1.63-4.33c-2.12-3.93-6.13-5.75-10.36-6.52 c-0.26-0.05-0.53-0.07-0.79-0.12c2.13-0.39,4.19-1,6.08-2c3.61-1.9,5.58-5.19,6.56-8.97c0.37,1.51,0.89,2.97,1.63,4.33 c2.12,3.93,6.13,5.75,10.36,6.52c0.26,0.05,0.53,0.07,0.79,0.12C80.99,153.82,78.93,154.43,77.05,155.43z M329.69,93.2 c-4.73,0-9.5-0.12-14.19-0.81c-3.3-0.48-6.65-1.27-9.6-2.87c-5.7-3.07-8.17-8.89-9.25-15c-0.9-5.11-1.03-10.33-1.04-15.51 c0-0.94-2.04-0.56-2.04,0.21c0,4.65-0.12,9.32-0.77,13.93c-0.47,3.35-1.22,6.74-2.77,9.77c-2.89,5.63-8.36,8.16-14.37,9.23 c-5.07,0.91-10.28,1.03-15.41,1.04c-0.42,0-1.15,0.12-1.33,0.58c-0.16,0.42,0.14,0.71,0.58,0.71c4.73,0,9.5,0.12,14.19,0.81 c3.3,0.48,6.65,1.27,9.6,2.87c5.7,3.07,8.17,8.89,9.25,15c0.9,5.11,1.03,10.33,1.04,15.51c0,0.35,0.29,0.52,0.65,0.55 c0.08,0.01,0.17,0,0.26-0.01c0.04,0,0.07,0,0.11,0c0.51-0.07,1.02-0.36,1.02-0.75c0-4.65,0.12-9.32,0.77-13.93 c0.47-3.35,1.22-6.74,2.77-9.77c2.89-5.63,8.36-8.16,14.37-9.23c5.07-0.91,10.28-1.03,15.41-1.04c0.42,0,1.15-0.12,1.33-0.58 C330.43,93.48,330.13,93.2,329.69,93.2z M304.68,97.13c-5.94,3.17-8.77,8.97-9.98,15.38c-0.03,0.16-0.05,0.32-0.08,0.48 c-0.53-3.14-1.36-6.25-2.88-9.06c-3.15-5.81-9.09-8.47-15.35-9.61c-1-0.18-2.01-0.33-3.01-0.46c3.91-0.53,7.72-1.5,11.13-3.32 c5.94-3.17,8.77-8.97,9.98-15.38c0.03-0.16,0.05-0.32,0.08-0.48c0.53,3.14,1.36,6.25,2.88,9.06c3.15,5.81,9.09,8.47,15.35,9.61 c1,0.18,2.01,0.33,3.01,0.46C311.9,94.34,308.09,95.31,304.68,97.13z" style="fill: rgb(86, 9, 31);"/></g></svg>